<?xml version="1.0" encoding="utf-8"?>
<!-- Generator: Adobe Illustrator 25.2.1, SVG Export Plug-In . SVG Version: 6.00 Build 0)  -->
<svg version="1.1" xmlns="http://www.w3.org/2000/svg" xmlns:xlink="http://www.w3.org/1999/xlink" x="0px" y="0px"
	 viewBox="0 0 160.1 50" style="enable-background:new 0 0 160.1 50;" xml:space="preserve">
<style type="text/css">
	.st0{fill:#FFFFFF;}
</style>
<g id="圖層_1">
</g>
<g id="圖層_2">
	<path class="st0" d="M1.4,2.3h3.4v25.4l0.1,0.8c1.7-1.8,4-2.9,6.8-3.3c5.7-0.2,9.8,2.7,12.1,8.5c0.3,1.1,0.4,2.4,0.4,4v8h-3.4v-9.3
		c-0.1-0.5-0.3-1.5-0.7-2.7c-1.3-2.5-3.4-4.2-6.4-4.9c-3.2-0.2-5.8,1.2-7.9,4.1l-0.9,2.5L4.8,36v9.6H1.4V2.3z"/>
	<path class="st0" d="M39.9,22.6c6.8-0.8,11.4,2.2,13.8,9.1c0.5,9-3.4,13.7-11.9,14c-8.4-0.9-12-5.8-10.9-14.7
		C32.3,26.8,35.3,24,39.9,22.6z M41,26.1c-4.9,1.2-7.1,4.3-6.8,9.4c1.2,4.8,4.4,7,9.5,6.7c4.8-1.3,6.9-4.4,6.5-9.5
		C49,28.3,45.9,26.1,41,26.1z"/>
	<path class="st0" d="M60.1,21.6h3.4v12.8l0.5,1.8c1.1,2.4,3,4,5.6,4.9c6,1,9.4-1.6,10.2-8c0.5-0.2,1.3-0.2,2.1-0.1h0.4
		c0.4,0,0.8,0.1,1.2,0.2c0,2.7,1.2,4.9,3.5,6.7c2.1,1.5,4.5,1.8,7.3,0.9c2-0.8,3.6-2.3,4.8-4.5l0.6-2v-8.8h3.4v10.1
		c0,3.2-2.8,6.3-3.9,7c-2.6,1.8-6.2,2.6-10.5,1.8c-2.8-0.8-5.2-2.5-7.1-5.1c-3.4,4.9-8.2,6.5-14.3,4.6c-3.3-1.3-5.6-3.9-6.9-7.6
		c-0.2-0.8-0.3-1.8-0.2-2.9V21.6z"/>
	<path class="st0" d="M120.1,23.5c6.8-0.8,11.4,2.3,13.8,9.2v2.6H115l-0.8,0.1c1,4.1,3.8,6.4,8.2,7.1v3.3c-5.9,0-9.7-3.1-11.5-9.3
		C110.3,30,113.3,25.7,120.1,23.5z M121,26.9c-2.5,0.6-4.5,2.2-6.1,4.7c0.7,0.2,1.6,0.2,2.7,0.1h12C128,28.3,125.2,26.6,121,26.9z"
		/>
	<path class="st0" d="M142.5,14.1c1.3-0.2,2.5,0.2,3.5,1.3c0.5,1.6,0,2.8-1.4,3.6c-1.4,0.5-2.6,0-3.5-1.4
		C140.7,16.2,141.2,15,142.5,14.1z M141.9,23.7h3.5v21.9h-3.5V23.7z"/>
	<path class="st0" d="M152.5,14.1c1.3-0.2,2.5,0.2,3.5,1.3c0.5,1.6,0,2.8-1.4,3.6c-1.4,0.5-2.6,0-3.5-1.4
		C150.8,16.2,151.2,15,152.5,14.1z M151.9,23.7h3.5v21.9h-3.5V23.7z"/>
	<rect x="139.2" y="44.7" class="st0" width="19.1" height="3.7"/>
</g>
</svg>
