<svg width="425" height="255" viewBox="0 0 425 215" fill="none" xmlns="http://www.w3.org/2000/svg">
<!-- 字母h -->
<path d="M0 99.4593L8.54703 97.0053L26.908 160.979L27.7377 162.922C30.71 157.161 35.6967 152.731 42.4463 149.702C56.6305 145.084 69.0336 149.429 79.0081 162.377C80.5574 164.931 81.7485 168.133 82.9051 172.163L88.6881 192.312L80.141 194.766L73.4183 171.343C72.8055 170.156 71.5799 167.781 69.7069 165.048C64.6317 159.689 58.1238 156.923 50.0763 157.326C41.8874 159.132 36.3635 164.534 33.1808 173.354L32.7255 180.3L32.9079 181.884L39.8474 206.063L31.3004 208.517L0 99.4593Z" fill="white">
<animateTransform
attributeName="transform"
type="rotate"
from="0 50 150" to="15 50 150"

begin="0.4s" dur="1s"

fill="freeze"
/></path>
<path d="M115.204 142.215C132.988 140.118 145.018 147.98 151.294 166.061C152.602 189.646 142.403 201.962 120.173 202.749C98.2054 200.39 88.7906 187.55 91.6674 164.227C95.3287 153.221 103.174 145.883 115.204 142.215ZM118.081 151.386C105.266 154.531 99.513 162.655 100.298 176.019C103.436 188.598 111.805 194.363 125.142 193.577C137.695 190.17 143.187 182.046 142.141 168.682C139.003 157.152 130.896 151.386 118.081 151.386Z" fill="white"/>

<!-- 字母w -->
<path d="M168.032 139.594H176.923V173.137L178.231 177.854C181.108 184.143 186.077 188.336 192.876 190.694C208.567 193.315 217.459 186.501 219.551 169.73C220.859 169.206 222.951 169.206 225.043 169.468H226.089C227.135 169.468 228.182 169.73 229.228 169.992C229.228 177.067 232.366 182.833 238.381 187.55C243.873 191.48 250.149 192.266 257.472 189.908C262.702 187.812 266.887 183.881 270.025 178.116L271.594 172.875V149.814H280.486V176.281C280.486 184.667 273.163 192.791 270.287 194.625C263.487 199.342 254.072 201.438 242.827 199.342C235.504 197.245 229.228 192.791 224.259 185.977C215.367 198.818 202.814 203.011 186.861 198.032C178.231 194.625 172.216 187.812 168.816 178.116C168.293 176.019 168.032 173.399 168.293 170.516V139.594H168.032Z" fill="white">
<animateTransform
attributeName="transform"
attributeType="XML"
type="translate"
values="0 0;0 25;0 0"

begin="1.3s" dur="0.8s"

fill="freeze"
/></path>

<!-- 字母e -->
<path d="M323.955 202.468C306.953 196.846 299.48 184.394 301.426 165.352L304.303 159.177L349.099 180.085L351.106 180.733C353.272 169.889 349.181 161.329 339.526 154.799L343.178 146.961C357.162 153.488 362.739 165.055 360.145 181.771C354.375 197.872 342.507 204.766 323.955 202.468ZM325.584 193.398C332.173 194.738 338.684 193.151 345.242 188.983C343.805 187.734 341.671 186.738 338.954 185.759L310.511 172.484C310.542 182.329 315.297 189.464 325.584 193.398Z" fill="white">
<animateTransform
attributeName="transform"
type="rotate"
from="0 330 175" to="155 330 175"

begin="2s" dur="0.8s"

fill="freeze"
/></path>

<!-- 字母i -->
<rect x="382.09" y="147.08" width="9.16" height="57.38"  fill="white" oke="white" stroke-width="1">
  <animate
      attributeName="height" from="57.38" to="40"
      values="57.38;40;57.38"

      begin="2.25s" dur="0.2s" fill="freeze"/>
    <animate
      attributeName="y" from="147.08" to="165"
      values="147.08;165;147.08"

      begin="2.25s" dur="0.2s" fill="freeze"/>
</rect>

<path d="M409.677 119.94C413.077 119.416 416.216 120.464 418.831 123.347C420.138 127.54 418.831 130.684 415.169 132.781C411.508 134.091 408.37 132.781 406.016 129.112C405.232 125.443 406.278 122.299 409.677 119.94ZM408.108 145.097H417.262V202.487H408.108V145.097Z" fill="white"/>
<path d="M424.846 200.128H374.895V209.822H424.846V200.128Z" fill="white"/>

<circle cx="0" cy="0" r="7" fill="white">
    <animateMotion path="M67.95 0 V147.03 C88.44 98.52 147.89 -46.01 223.84 171.53"
    
    begin="0s" dur="1s" fill="freeze"/>

    <animateMotion path="M223.84 171.53 C243.32 115.19 294.39 30.91 342.75 144.53C362.24 106.02 367.73 112.02 386.5 142.5"
    
    begin="1s" dur="1s" fill="freeze"/>
    <animateMotion path="M386.5 142.5V150.5 V95.5 V128.5"
    
    begin="2s" dur="0.6s" fill="freeze"/>

</circle>
</svg>
